<svg width="16" height="16" viewBox="0 0 16 16" fill="none" xmlns="http://www.w3.org/2000/svg">
<path fill-rule="evenodd" clip-rule="evenodd" d="M0 8C0 3.58321 3.58321 0 8 0C12.4168 0 16 3.58321 16 8C16 12.4168 12.4168 16 8 16C3.58321 16 0 12.4168 0 8ZM8 1.23077C4.26294 1.23077 1.23077 4.26294 1.23077 8C1.23077 11.7371 4.26294 14.7692 8 14.7692C11.7371 14.7692 14.7692 11.7371 14.7692 8C14.7692 4.26294 11.7371 1.23077 8 1.23077ZM12.0881 4.45187C12.3484 4.67047 12.3821 5.05865 12.1635 5.31889L6.99428 11.4727C6.87972 11.6091 6.71168 11.6892 6.53359 11.6922C6.35549 11.6953 6.18482 11.621 6.06567 11.4886L3.85028 9.02706C3.62292 8.77443 3.6434 8.38533 3.89602 8.15797C4.14864 7.93061 4.53774 7.95109 4.7651 8.20371L6.50706 10.1392L11.2211 4.52727C11.4397 4.26703 11.8279 4.23327 12.0881 4.45187Z" fill="#CEFFED"/>
</svg>
