<svg width="95" height="23" viewBox="0 0 95 23" fill="none" xmlns="http://www.w3.org/2000/svg">
<path fill-rule="evenodd" clip-rule="evenodd" d="M24.3326 11.5271C24.3326 17.8671 24.4069 23.0299 24.498 22.9999C24.5888 22.97 26.0015 22.0647 27.6369 20.9882L30.6108 19.0308L30.6113 11.5959L30.6119 4.16093L28.5025 2.76433C27.3423 1.99605 25.9293 1.05993 25.3628 0.683783L24.3326 0V11.5271ZM0.833978 4.21704L0 4.28751V11.6183V18.9492H1.47173H2.94345V16.0211V13.0928L4.56235 13.1819C6.49405 13.2879 9.40022 12.9485 11.0684 12.4218C12.5509 11.9538 14.1951 10.6658 14.501 9.73314C15.2775 7.36633 13.9273 5.48984 10.7927 4.57883C9.64884 4.2464 9.11215 4.20497 5.59256 4.17724C3.43403 4.16044 1.29257 4.17822 0.833978 4.21704ZM17.857 11.5274V18.9492H19.4268H20.9966V11.5274V4.10563H19.4268H17.857V11.5274ZM33.8825 4.21443C33.8105 4.27413 33.7516 7.61394 33.7516 11.6362V18.9492H35.23H36.7086L36.6527 12.7479C36.5989 6.75432 36.6087 6.55988 36.9482 6.94744C37.6191 7.7136 42.7605 13.0123 45.6655 15.9316L48.5874 18.8676L50.2942 18.9148L52.001 18.9619V11.5338V4.10563H50.5293H49.0576V10.0498C49.0576 13.3191 48.9836 16.0319 48.8931 16.0784C48.8029 16.1247 48.3025 15.68 47.7813 15.0899C46.8433 14.028 44.341 11.4082 39.6654 6.59316L37.2502 4.10563H35.6317C34.7416 4.10563 33.9543 4.15457 33.8825 4.21443ZM55.7294 5.00114V5.89991H59.3597H62.9899V12.4246V18.9492H64.5598H66.1296V12.4281V5.90709L69.8089 5.86272L73.4883 5.81835V5.00277V4.18719L64.6088 4.14478L55.7294 4.10237V5.00114ZM77.1984 4.33106C77.1377 4.46253 77.1228 6.79624 77.1654 9.51685C77.2514 15.0064 77.3546 15.5526 78.552 16.8576C80.0659 18.5077 82.2344 19.1905 85.9489 19.1869C89.6092 19.1834 91.5234 18.6068 93.2865 16.9768C94.8024 15.5753 94.8501 15.3548 94.9299 9.36613L95 4.10563H93.4304H91.8607L91.7991 9.28457C91.7294 15.1582 91.6827 15.3585 90.1129 16.5341C88.0848 18.0524 83.6604 18.0137 81.8889 16.462C80.5555 15.2941 80.5626 15.3284 80.4544 9.48847L80.3563 4.18719L78.8326 4.13956C77.6366 4.10205 77.2851 4.14331 77.1984 4.33106ZM7.94183 5.74805C10.2681 6.08472 11.5782 7.07402 11.5768 8.49313C11.5756 9.70786 10.5115 10.7854 8.83036 11.2743C8.02621 11.5082 4.2007 11.702 3.45581 11.5465L2.94345 11.4397V8.59899V5.75849L3.48309 5.69047C4.59002 5.55117 6.77662 5.57922 7.94183 5.74805ZM26.3753 11.385C26.5129 11.6827 26.1801 12.0983 25.8043 12.0983C25.4367 12.0983 25.0574 11.6481 25.1875 11.3664C25.3396 11.0368 26.2209 11.0505 26.3753 11.385Z" fill="#A7000A"/>
</svg>
