<svg width="40" height="32" viewBox="0 0 40 32" fill="none" xmlns="http://www.w3.org/2000/svg">
<path d="M39.5987 3.78831C38.1261 4.43077 36.557 4.85662 34.9211 5.06338C36.604 4.064 37.8885 2.49354 38.4924 0.600615C36.9233 1.53108 35.1908 2.18831 33.3445 2.55508C31.8546 0.977231 29.7312 0 27.4146 0C22.9202 0 19.3019 3.62831 19.3019 8.07631C19.3019 8.71631 19.3563 9.33169 19.49 9.91754C12.7409 9.59015 6.7689 6.37292 2.75706 1.472C2.05666 2.68062 1.64582 4.064 1.64582 5.55323C1.64582 8.34954 3.09365 10.8283 5.25177 12.2634C3.94749 12.2388 2.66796 11.8622 1.58395 11.2689C1.58395 11.2935 1.58395 11.3255 1.58395 11.3575C1.58395 15.2812 4.39793 18.5403 8.08803 19.2911C7.42722 19.4708 6.70702 19.5569 5.9596 19.5569C5.43987 19.5569 4.91518 19.5274 4.42268 19.4191C5.47451 22.6166 8.45926 24.9674 12.0083 25.0437C9.24629 27.1926 5.73933 28.4874 1.94281 28.4874C1.27706 28.4874 0.638528 28.4578 0 28.3766C3.59605 30.6831 7.85786 32 12.4538 32C27.3924 32 35.5596 19.6923 35.5596 9.024C35.5596 8.66708 35.5472 8.32246 35.5299 7.98031C37.1411 6.84308 38.4949 5.42277 39.5987 3.78831Z" fill="#456B80"/>
</svg>
