<svg width="32" height="32" viewBox="0 0 32 32" fill="none" xmlns="http://www.w3.org/2000/svg">
<path d="M24.5 32H7.5C3.3645 32 0 28.6355 0 24.5V7.5C0 3.3645 3.3645 0 7.5 0H24.5C28.6355 0 32 3.3645 32 7.5V24.5C32 28.6355 28.6355 32 24.5 32ZM7.5 2.5C4.743 2.5 2.5 4.743 2.5 7.5V24.5C2.5 27.257 4.743 29.5 7.5 29.5H24.5C27.257 29.5 29.5 27.257 29.5 24.5V7.5C29.5 4.743 27.257 2.5 24.5 2.5H7.5ZM24.8125 5.625C23.9496 5.625 23.25 6.32456 23.25 7.1875C23.25 8.05044 23.9496 8.75 24.8125 8.75C25.6754 8.75 26.375 8.05044 26.375 7.1875C26.375 6.32456 25.6754 5.625 24.8125 5.625ZM16 24.125C11.5198 24.125 7.875 20.4802 7.875 16C8.32125 5.22106 23.6804 5.22419 24.125 16.0001C24.125 20.4802 20.4802 24.125 16 24.125ZM16 10.375C12.8984 10.375 10.375 12.8984 10.375 16C10.684 23.4623 21.3171 23.4601 21.625 15.9999C21.625 12.8984 19.1016 10.375 16 10.375Z" fill="#456B80"/>
</svg>
