<svg width="32" height="32" viewBox="0 0 32 32" fill="none" xmlns="http://www.w3.org/2000/svg">
<rect width="32" height="32" rx="5" fill="#456B80"/>
<path d="M26.0878 7.99988H6.12838C4.95479 7.99988 4 8.95467 4 10.1283V22.4625C4 23.6361 4.95479 24.5909 6.12838 24.5909H26.0878C27.2614 24.5909 28.2162 23.6361 28.2162 22.4625V10.1283C28.2162 8.95467 27.2614 7.99988 26.0878 7.99988ZM25.8101 9.4188L25.526 9.65533L16.9526 16.7944C16.4632 17.2019 15.7529 17.2019 15.2637 16.7944L6.69022 9.65533L6.40616 9.4188H25.8101ZM5.41892 10.4432L12.4044 16.2599L5.41892 20.9089V10.4432ZM26.0878 23.172H6.12838C5.78557 23.172 5.49885 22.9276 5.43316 22.6039L13.542 17.2072L14.3557 17.8848C14.8634 18.3076 15.4858 18.5189 16.1082 18.5189C16.7305 18.5189 17.3528 18.3076 17.8606 17.8848L18.6743 17.2072L26.7831 22.6039C26.7174 22.9276 26.4306 23.172 26.0878 23.172ZM26.7973 20.9089L19.8119 16.26L26.7973 10.4432V20.9089Z" fill="white"/>
</svg>
